<?xml version="1.0" encoding="UTF-8" standalone="no"?>
<!-- Created with Inkscape (http://www.inkscape.org/) -->

<svg
   width="93.908569mm"
   height="68.48362mm"
   viewBox="0 0 93.908569 68.48362"
   version="1.1"
   id="svg5"
   inkscape:version="1.2.2 (732a01da63, 2022-12-09)"
   sodipodi:docname="new.svg"
   inkscape:export-filename="new.png"
   inkscape:export-xdpi="96"
   inkscape:export-ydpi="96"
   xmlns:inkscape="http://www.inkscape.org/namespaces/inkscape"
   xmlns:sodipodi="http://sodipodi.sourceforge.net/DTD/sodipodi-0.dtd"
   xmlns="http://www.w3.org/2000/svg"
   xmlns:svg="http://www.w3.org/2000/svg">
  <sodipodi:namedview
     id="namedview7"
     pagecolor="#ffffff"
     bordercolor="#000000"
     borderopacity="0.25"
     inkscape:showpageshadow="2"
     inkscape:pageopacity="0.0"
     inkscape:pagecheckerboard="0"
     inkscape:deskcolor="#d1d1d1"
     inkscape:document-units="mm"
     showgrid="false"
     inkscape:zoom="0.46769781"
     inkscape:cx="150.73836"
     inkscape:cy="89.801575"
     inkscape:window-width="1366"
     inkscape:window-height="705"
     inkscape:window-x="-8"
     inkscape:window-y="-8"
     inkscape:window-maximized="1"
     inkscape:current-layer="layer1" />
  <defs
     id="defs2">
    <rect
       x="324.99619"
       y="587.98651"
       width="211.67514"
       height="100.49224"
       id="rect1035" />
  </defs>
  <g
     inkscape:label="Camada 1"
     inkscape:groupmode="layer"
     id="layer1"
     transform="translate(-61.662857,-125.02286)">
    <rect
       style="fill:#00ffff;stroke-width:0.264583"
       id="rect1031"
       width="93.908569"
       height="67.32"
       x="61.662857"
       y="125.02286" />
    <text
       xml:space="preserve"
       transform="scale(0.26458333)"
       id="text1033"
       style="font-size:74.6667px;white-space:pre;shape-inside:url(#rect1035);fill:#280b0b"><tspan
         x="324.99609"
         y="656.10702"
         id="tspan262">NEW</tspan></text>
    <path
       style="fill:#280b0b;stroke-width:0.264583"
       id="path1240"
       d="m 73.988321,148.89922 c -0.245685,2.11327 -0.352907,4.23711 -0.412383,6.36254 -0.102192,2.73511 0.205587,5.46248 0.502217,8.17655 0.355637,2.5839 0.929428,5.13381 1.441365,7.69091 0.366966,2.00293 0.661516,4.0179 0.988639,6.02805 0.293759,1.62051 0.249714,3.27303 0.420545,4.90441 0.233436,1.45793 1.070033,2.60851 2.091224,3.62348 1.504138,1.2341 3.389749,2.14766 5.05741,3.00798 0.672801,0.34708 2.070113,0.57022 2.821361,0.74835 2.447501,0.66327 4.910052,1.21108 7.428007,1.51531 2.869084,0.31112 5.720534,0.64805 8.557634,1.1814 2.46444,0.49266 4.97404,0.64831 7.46922,0.9082 2.91483,0.29758 5.84481,0.36205 8.77216,0.40564 2.75725,0.0207 5.5145,0.0432 8.27184,0.0408 2.03114,2.2e-4 4.06228,-7e-5 6.09342,0.002 2.16968,0.13152 4.05045,-0.8715 5.82437,-1.9971 1.55773,-1.00727 2.83009,-2.36413 4.23198,-3.56059 1.05007,-0.87863 1.9992,-1.87556 2.95667,-2.85299 1.03944,-1.11537 1.68375,-2.4662 2.37834,-3.79898 0.89744,-1.97033 1.47959,-4.06004 1.98523,-6.15902 0.40033,-2.04856 0.66822,-4.11812 1.00917,-6.1775 0.26391,-1.45305 0.3165,-2.92637 0.34121,-4.39884 -0.0271,-2.13422 0.0755,-4.27228 -0.0527,-6.40362 -0.19067,-1.81947 -0.90086,-3.37875 -2.22718,-4.62586 -2.4152,-2.06702 -5.32534,-3.47363 -8.26499,-4.64407 -1.95057,-0.76569 -3.95779,-1.27243 -6.03356,-1.52825 -2.79465,-0.25729 -5.60419,-0.25889 -8.40813,-0.27756 -3.05209,0.20707 -6.003,-0.38095 -8.94026,-1.13134 -0.18823,-0.0603 -2.05469,-0.65196 -2.3129,-0.75746 -0.31388,-0.12826 -1.20662,-0.61846 -0.9119,-0.45078 4.52066,2.57201 2.26248,1.25157 1.05453,10e-4 -1.19279,-1.25192 -2.13547,-2.70615 -3.23771,-4.03521 -1.24374,-1.45163 -2.7978,-2.51042 -4.36742,-3.56897 -2.51097,-1.69642 -5.10915,-3.02982 -8.00065,-3.84572 -1.542773,-0.34177 -3.129019,-0.3426 -4.700705,-0.36481 -1.827138,-0.0108 -3.654324,-0.004 -5.481478,-0.002 -1.581957,-0.0643 -3.134461,0.35302 -4.61568,0.87262 -1.470965,0.57103 -2.614954,1.62904 -3.670499,2.76801 -1.132199,1.36501 -2.333201,2.66891 -3.55305,3.95535 -1.507103,1.79764 -3.039504,3.57792 -4.483184,5.42821 -1.135904,1.45801 -2.326783,2.88332 -3.199768,4.51956 -0.323974,0.72342 -0.389427,1.535 0.374883,1.99298 1.234408,0.73965 2.486681,1.44906 3.730022,2.17359 0.670896,0.28489 1.35663,0.5468 2.02429,0.84707 0,0 -3.103811,-2.45282 -3.103811,-2.45282 v 0 c -0.676945,-0.27574 -1.345743,-0.56656 -2.003735,-0.88549 1.012746,0.59472 2.025494,1.18943 3.038239,1.78414 -0.233137,-0.16338 -0.688744,-0.30634 -0.783777,-0.60656 -0.101688,-0.32123 0.04781,-0.60033 0.139245,-0.89884 0.842779,-1.6245 2.01723,-3.03517 3.129147,-4.48002 1.436936,-1.84101 2.952787,-3.62129 4.479415,-5.38723 1.218289,-1.29117 2.430478,-2.58947 3.576521,-3.94582 1.018664,-1.09976 2.124088,-2.09807 3.565165,-2.60313 1.467265,-0.47858 2.972818,-0.86723 4.530836,-0.77657 1.824545,-0.007 3.649242,-0.0182 5.473708,0.006 1.558366,0.0321 3.135486,0.0571 4.651746,0.46048 1.42146,0.43833 7.00299,2.94831 1.24393,0.0147 1.55722,1.05239 3.13466,2.04827 4.39754,3.46598 1.14023,1.30983 2.0522,2.78965 3.24079,4.05585 2.31873,2.58109 5.52183,4.19465 8.84791,5.06444 2.95865,0.72269 5.93663,1.25322 8.99873,1.05991 2.8006,0.0178 5.6091,0.0262 8.39651,0.33037 2.0541,0.29988 4.0476,0.83917 5.97881,1.60847 0.3461,0.14086 0.69412,0.27707 1.03828,0.42258 0.33296,0.14076 1.28632,0.64727 0.99289,0.43614 -0.75901,-0.54616 -1.60568,-0.95894 -2.40159,-1.44978 -0.46251,-0.28524 0.94212,0.54819 1.3715,0.88123 0.1919,0.14885 0.3739,0.31005 0.56085,0.46507 1.4453,1.16717 2.09696,2.51347 2.37003,4.35345 0.16871,2.11633 0.0541,4.24521 0.0561,6.36638 -0.0312,1.45464 -0.0805,2.91144 -0.31524,4.35051 -0.31865,2.05662 -0.58369,4.1207 -0.96654,6.16595 -0.49757,2.06536 -1.07734,4.12344 -1.96342,6.06015 -0.68765,1.29224 -1.31499,2.61383 -2.34134,3.68834 -0.94902,0.96969 -1.88354,1.96315 -2.92515,2.83442 -1.36858,1.20241 -2.63838,2.52946 -4.17828,3.52382 -1.75454,1.09125 -3.58783,1.96175 -5.71262,1.80809 -2.02537,0.004 -4.05074,0.007 -6.07612,0.0109 -2.74578,1.6e-4 -5.49176,0.0211 -8.23733,-0.0239 -2.92671,-0.0535 -5.85587,-0.13422 -8.76878,-0.44523 -2.48886,-0.26151 -4.99037,-0.43968 -7.448622,-0.93074 -2.845467,-0.51591 -5.709195,-0.82558 -8.579258,-1.16987 -2.512547,-0.33006 -4.96987,-0.90272 -7.415821,-1.56173 -0.766162,-0.19237 -1.265078,-0.30315 -2.014048,-0.54784 -0.263803,-0.0862 -1.010724,-0.44382 -0.781296,-0.28767 5.041511,3.43126 2.841678,1.61281 1.659573,0.9471 -1.02022,-0.93787 -1.910088,-1.98047 -2.205054,-3.37741 -0.219887,-1.63312 -0.135429,-3.29828 -0.426132,-4.92668 -0.337138,-2.01708 -0.652394,-4.03637 -1.002165,-6.05078 -0.526772,-2.55155 -1.105035,-5.09801 -1.49089,-7.67405 -0.275492,-2.69632 -0.599522,-5.40384 -0.505055,-8.11905 0.06938,-2.1012 0.156199,-4.20708 0.456416,-6.29039 0,0 -3.499447,-1.84607 -3.499447,-1.84607 z" />
  </g>
</svg>
